<svg width="18" height="19" viewBox="0 0 18 19" fill="none" xmlns="http://www.w3.org/2000/svg">
<path d="M17.8482 10.3378L9.55105 0.775648C9.47605 0.689123 9.38333 0.61973 9.27916 0.572172C9.175 0.524613 9.06183 0.5 8.94732 0.5C8.83282 0.5 8.71965 0.524613 8.61548 0.572172C8.51132 0.61973 8.4186 0.689123 8.3436 0.775648L0.0488992 10.3378C0.0238343 10.3666 0.00758214 10.402 0.00207892 10.4398C-0.0034243 10.4776 0.00205323 10.5162 0.017859 10.551C0.0336647 10.5858 0.0591326 10.6153 0.0912289 10.636C0.123325 10.6567 0.160697 10.6677 0.198894 10.6678H2.22382C2.33882 10.6678 2.44881 10.6178 2.52631 10.5303L7.99861 4.22302V18.3C7.99861 18.41 8.0886 18.5 8.1986 18.5H9.69855C9.80854 18.5 9.89854 18.41 9.89854 18.3V4.22302L15.3708 10.5303C15.4458 10.6178 15.5558 10.6678 15.6733 10.6678H17.6983C17.8682 10.6678 17.9607 10.4678 17.8482 10.3378Z" fill="white"/>
</svg>
