<svg width="19" height="19" viewBox="0 0 19 19" fill="none" xmlns="http://www.w3.org/2000/svg">
<path d="M18.3214 0.500001H13.4696C12.4285 0.500001 11.4106 0.861231 10.5348 1.5427L9.5 2.34458L8.46518 1.5427C7.59027 0.861361 6.57128 0.499328 5.53036 0.500001H0.678571C0.303237 0.500001 0 0.866354 0 1.31981V15.8715C0 16.3249 0.303237 16.6913 0.678571 16.6913H5.53036C6.57154 16.6913 7.5894 17.0525 8.46518 17.734L9.4067 18.4667C9.43426 18.4872 9.46607 18.5 9.49788 18.5C9.52969 18.5 9.5615 18.4898 9.58906 18.4667L10.5306 17.734C11.4085 17.0525 12.4285 16.6913 13.4696 16.6913H18.3214C18.6968 16.6913 19 16.3249 19 15.8715V1.31981C19 0.866354 18.6968 0.500001 18.3214 0.500001ZM5.53036 14.8467H1.52679V2.34458H5.53036C6.28103 2.34458 7.01049 2.60333 7.64029 3.09266L8.67511 3.89454L8.82143 4.00982V15.8459C7.81205 15.19 6.68393 14.8467 5.53036 14.8467ZM17.4732 14.8467H13.4696C12.3161 14.8467 11.1879 15.19 10.1786 15.8459V4.00982L10.3249 3.89454L11.3597 3.09266C11.9895 2.60333 12.719 2.34458 13.4696 2.34458H17.4732V14.8467ZM7.05926 5.62383H3.11931C3.03661 5.62383 2.96875 5.71093 2.96875 5.81597V6.96883C2.96875 7.07387 3.03661 7.16097 3.11931 7.16097H7.05714C7.13984 7.16097 7.2077 7.07387 7.2077 6.96883V5.81597C7.20982 5.71093 7.14196 5.62383 7.05926 5.62383ZM11.7902 5.81597V6.96883C11.7902 7.07387 11.858 7.16097 11.9407 7.16097H15.8786C15.9613 7.16097 16.0291 7.07387 16.0291 6.96883V5.81597C16.0291 5.71093 15.9613 5.62383 15.8786 5.62383H11.9407C11.858 5.62383 11.7902 5.71093 11.7902 5.81597ZM7.05926 9.2105H3.11931C3.03661 9.2105 2.96875 9.29761 2.96875 9.40265V10.5555C2.96875 10.6605 3.03661 10.7477 3.11931 10.7477H7.05714C7.13984 10.7477 7.2077 10.6605 7.2077 10.5555V9.40265C7.20982 9.29761 7.14196 9.2105 7.05926 9.2105ZM15.8807 9.2105H11.9407C11.858 9.2105 11.7902 9.29761 11.7902 9.40265V10.5555C11.7902 10.6605 11.858 10.7477 11.9407 10.7477H15.8786C15.9613 10.7477 16.0291 10.6605 16.0291 10.5555V9.40265C16.0312 9.29761 15.9634 9.2105 15.8807 9.2105Z" fill="white"/>
</svg>
