<svg width="14" height="15" viewBox="0 0 14 15" fill="none" xmlns="http://www.w3.org/2000/svg">
<path d="M13.44 0.5H0.56C0.25025 0.5 0 0.75025 0 1.06V13.94C0 14.2498 0.25025 14.5 0.56 14.5H13.44C13.7498 14.5 14 14.2498 14 13.94V1.06C14 0.75025 13.7498 0.5 13.44 0.5ZM7.01925 7.60675L3.65925 10.4242C3.56825 10.5012 3.43 10.4365 3.43 10.3175V9.22025C3.43 9.18 3.44925 9.13975 3.48075 9.1135L5.40225 7.5L3.48075 5.8865C3.46466 5.8738 3.45172 5.85756 3.44292 5.83905C3.43412 5.82053 3.4297 5.80025 3.43 5.77975V4.6825C3.43 4.5635 3.56825 4.49875 3.65925 4.57575L7.01925 7.3915C7.0875 7.4475 7.0875 7.55075 7.01925 7.60675ZM10.57 10.3175C10.57 10.3945 10.5105 10.4575 10.4388 10.4575H7.20125C7.1295 10.4575 7.07 10.3945 7.07 10.3175V9.4775C7.07 9.4005 7.1295 9.3375 7.20125 9.3375H10.4388C10.5105 9.3375 10.57 9.4005 10.57 9.4775V10.3175Z" fill="black"/>
</svg>
