<svg width="14" height="15" viewBox="0 0 14 15" fill="none" xmlns="http://www.w3.org/2000/svg">
<path d="M13.6957 0.5H7.91304C7.74565 0.5 7.6087 0.636957 7.6087 0.804348V6.58696C7.6087 6.75435 7.74565 6.8913 7.91304 6.8913H13.6957C13.863 6.8913 14 6.75435 14 6.58696V0.804348C14 0.636957 13.863 0.5 13.6957 0.5ZM13.6957 8.1087H7.91304C7.74565 8.1087 7.6087 8.24565 7.6087 8.41304V14.1957C7.6087 14.363 7.74565 14.5 7.91304 14.5H13.6957C13.863 14.5 14 14.363 14 14.1957V8.41304C14 8.24565 13.863 8.1087 13.6957 8.1087ZM6.08696 0.5H0.304348C0.136957 0.5 0 0.636957 0 0.804348V6.58696C0 6.75435 0.136957 6.8913 0.304348 6.8913H6.08696C6.25435 6.8913 6.3913 6.75435 6.3913 6.58696V0.804348C6.3913 0.636957 6.25435 0.5 6.08696 0.5ZM6.08696 8.1087H0.304348C0.136957 8.1087 0 8.24565 0 8.41304V14.1957C0 14.363 0.136957 14.5 0.304348 14.5H6.08696C6.25435 14.5 6.3913 14.363 6.3913 14.1957V8.41304C6.3913 8.24565 6.25435 8.1087 6.08696 8.1087Z" fill="black"/>
</svg>
