<svg width="22" height="19" viewBox="0 0 22 19" fill="none" xmlns="http://www.w3.org/2000/svg">
<path d="M13.5 13.6667V15.75C13.5 16.3025 13.2805 16.8324 12.8898 17.2231C12.4991 17.6138 11.9692 17.8333 11.4167 17.8333H3.08333C2.5308 17.8333 2.00089 17.6138 1.61019 17.2231C1.21949 16.8324 1 16.3025 1 15.75V3.25C1 2.69746 1.21949 2.16756 1.61019 1.77686C2.00089 1.38616 2.5308 1.16666 3.08333 1.16666H11C12.1505 1.16666 13.5 2.09948 13.5 3.25V5.33333M16.8333 13.6667L21 9.5L16.8333 5.33333M6.83333 9.5H20.1667" stroke="white" stroke-width="1.5" stroke-linecap="round" stroke-linejoin="round"/>
</svg>
