<svg width="20" height="19" viewBox="0 0 20 19" fill="none" xmlns="http://www.w3.org/2000/svg">
<path d="M6.6982 4.53348H8.58751V13.1823C8.58751 13.2948 8.67954 13.3869 8.79203 13.3869H10.326C10.4385 13.3869 10.5305 13.2948 10.5305 13.1823V4.53348H12.4249C12.5962 4.53348 12.6908 4.33663 12.586 4.20368L9.72262 0.578474C9.70349 0.554028 9.67904 0.534258 9.65114 0.520662C9.62323 0.507066 9.5926 0.5 9.56156 0.5C9.53051 0.5 9.49988 0.507066 9.47197 0.520662C9.44407 0.534258 9.41962 0.554028 9.40049 0.578474L6.53714 4.20113C6.43232 4.33663 6.52691 4.53348 6.6982 4.53348ZM18.9186 12.4154H17.3846C17.2722 12.4154 17.1801 12.5074 17.1801 12.6199V16.557H1.94299V12.6199C1.94299 12.5074 1.85095 12.4154 1.73846 12.4154H0.204525C0.0920364 12.4154 0 12.5074 0 12.6199V17.6819C0 18.1344 0.365589 18.5 0.818101 18.5H18.305C18.7575 18.5 19.1231 18.1344 19.1231 17.6819V12.6199C19.1231 12.5074 19.0311 12.4154 18.9186 12.4154Z" fill="white"/>
</svg>
